<?xml version="1.0" encoding="utf-8"?>
<!-- Generator: Adobe Illustrator 16.0.0, SVG Export Plug-In . SVG Version: 6.00 Build 0)  -->
<!DOCTYPE svg PUBLIC "-//W3C//DTD SVG 1.1//EN" "http://www.w3.org/Graphics/SVG/1.1/DTD/svg11.dtd">
<svg version="1.1" id="Layer_1" xmlns="http://www.w3.org/2000/svg" xmlns:xlink="http://www.w3.org/1999/xlink" x="0px" y="0px"
	 width="341.42px" height="350.887px" viewBox="0 0 341.42 350.887" enable-background="new 0 0 341.42 350.887"
	 xml:space="preserve">
<path fill="#469F38" d="M211.192,126.77c0-30.129-24.431-107.681-39.845-107.681s-42.1,77.552-42.1,107.681
	c0,30.131,25.394,44.725,40.808,44.725C185.47,171.495,211.192,156.901,211.192,126.77z"/>
<path fill="#469F38" d="M215.931,212.542c30.129,0,107.68-24.432,107.681-39.846c-0.001-15.414-77.552-42.102-107.681-42.102
	c-30.132,0.001-44.726,25.395-44.726,40.809C171.206,186.817,185.799,212.541,215.931,212.542z"/>
<path fill="#469F38" d="M132.247,215.813c0,30.129,24.431,107.682,39.846,107.682c15.414,0,42.1-77.553,42.1-107.682
	c0-30.131-25.394-44.725-40.808-44.725C157.97,171.088,132.247,185.682,132.247,215.813z"/>
<path fill="#469F38" d="M125.698,130.319c-30.129,0-107.681,24.431-107.681,39.845s77.552,42.1,107.681,42.1
	c30.131,0,44.725-25.394,44.725-40.808C170.423,156.042,155.83,130.319,125.698,130.319z"/>
</svg>
