<?xml version="1.0" encoding="utf-8"?>
<!-- Generator: Adobe Illustrator 16.0.0, SVG Export Plug-In . SVG Version: 6.00 Build 0)  -->
<!DOCTYPE svg PUBLIC "-//W3C//DTD SVG 1.1//EN" "http://www.w3.org/Graphics/SVG/1.1/DTD/svg11.dtd">
<svg version="1.1" id="Layer_1" xmlns="http://www.w3.org/2000/svg" xmlns:xlink="http://www.w3.org/1999/xlink" x="0px" y="0px"
	 width="341.42px" height="350.887px" viewBox="0 0 341.42 350.887" enable-background="new 0 0 341.42 350.887"
	 xml:space="preserve">
<circle fill="#FF8415" cx="172.414" cy="175.597" r="69.822"/>
<circle fill="#FF8415" cx="150.21" cy="83.943" r="10"/>
<circle fill="#FF8415" cx="224.985" cy="84.986" r="14.591"/>
<circle fill="#FF8415" cx="192.335" cy="114.534" r="12.113"/>
<circle fill="#FF8415" cx="220.983" cy="128.347" r="10"/>
<circle fill="#FF8415" cx="212.68" cy="47.064" r="7.696"/>
<circle fill="#FF8415" cx="150.21" cy="47.064" r="6"/>
<circle fill="#FF8415" cx="172.335" cy="261.369" r="10"/>
<circle fill="#FF8415" cx="214.983" cy="215.412" r="14.592"/>
<circle fill="#FF8415" cx="113.914" cy="203.299" r="12.113"/>
<circle fill="#FF8415" cx="107.561" cy="245.369" r="10"/>
<circle fill="#FF8415" cx="109.866" cy="298.248" r="7.696"/>
<circle fill="#FF8415" cx="212.68" cy="230.021" r="6"/>
<circle fill="#FF8415" cx="182.335" cy="108.348" r="10"/>
<path fill="#FF8415" d="M234.404,174.448c-8.058,0.002-14.59-6.533-14.59-14.59c0.001-8.06,6.532-14.593,14.59-14.592
	c8.061,0,14.593,6.532,14.592,14.592C248.996,167.915,242.465,174.448,234.404,174.448z"/>
<path fill="#FF8415" d="M198.983,252.133c-6.689,0-12.113-5.42-12.111-12.111c0-6.689,5.423-12.113,12.112-12.112
	c6.69-0.001,12.112,5.423,12.112,12.11C211.097,246.713,205.675,252.133,198.983,252.133z"/>
<path fill="#FF8415" d="M234.406,190.447c-5.526,0.002-10.001-4.475-10.001-9.998c0.001-5.523,4.477-10,10-10s10,4.479,10,10
	C244.405,185.975,239.929,190.449,234.406,190.447z"/>
<circle fill="#FF8415" cx="244.407" cy="292.248" r="7.696"/>
<path fill="#FF8415" d="M234.403,215.12c-3.312-0.001-5.998-2.688-5.997-6.001c-0.003-3.313,2.685-5.999,5.999-5.999
	c3.312,0,6,2.686,6.001,5.997C240.405,212.433,237.718,215.12,234.403,215.12z"/>
<circle fill="#FF8415" cx="79.597" cy="193.12" r="10"/>
<path fill="#FF8415" d="M113.025,151.267c8.058-0.002,14.59,6.533,14.59,14.59c-0.001,8.06-6.532,14.593-14.59,14.592
	c-8.061,0-14.593-6.532-14.592-14.592C98.434,157.8,104.965,151.267,113.025,151.267z"/>
<path fill="#FF8415" d="M125.138,121.639c6.689,0,12.113,5.42,12.111,12.111c0,6.689-5.423,12.113-12.112,12.112
	c-6.69,0.001-12.112-5.423-12.112-12.11C113.024,127.059,118.446,121.639,125.138,121.639z"/>
<path fill="#FF8415" d="M95.596,118.348c5.526-0.001,10.001,4.476,10.001,9.999c-0.001,5.522-4.477,10-10,10s-10-4.479-10-10
	C85.597,122.821,90.074,118.347,95.596,118.348z"/>
<circle fill="#FF8415" cx="64.11" cy="126.647" r="7.696"/>
<path fill="#FF8415" d="M48.72,159.857c3.312,0.001,5.998,2.688,5.997,6.001c0.003,3.313-2.685,5.999-5.999,5.999
	c-3.312,0-6-2.686-6.001-5.997C42.718,162.545,45.406,159.857,48.72,159.857z"/>
<path fill="#FF8415" d="M82.426,222.326c3.312,0.001,5.998,2.688,5.998,6.001c0.002,3.313-2.686,5.999-6,5.999
	c-3.312,0-6-2.686-6.001-5.997C76.424,225.014,79.111,222.326,82.426,222.326z"/>
<path fill="#FF8415" d="M137.252,230.021c3.312,0.001,5.997,2.688,5.997,6.001c0.002,3.313-2.686,5.999-5.999,5.999
	c-3.312,0-6-2.686-6.001-5.997C131.25,232.709,133.938,230.021,137.252,230.021z"/>
<path fill="#FF8415" d="M117.564,72.986c3.312,0.001,5.998,2.688,5.998,6.001c0.002,3.313-2.686,5.999-6,5.999
	c-3.312,0-6-2.686-6.001-5.997C111.562,75.674,114.25,72.986,117.564,72.986z"/>
<path fill="#FF8415" d="M282.695,175.63c3.312,0.001,5.997,2.688,5.997,6.001c0.002,3.313-2.686,5.999-5.999,5.999
	c-3.312,0-6-2.686-6.001-5.997C276.693,178.317,279.381,175.63,282.695,175.63z"/>
<path fill="#FF8415" d="M50.418,234.63c3.312,0.001,5.997,2.688,5.997,6.001c0.002,3.313-2.686,5.999-5.999,5.999
	c-3.312,0-6-2.686-6.001-5.997C44.417,237.317,47.104,234.63,50.418,234.63z"/>
<path fill="#FF8415" d="M264.408,112.348c3.312,0.001,5.997,2.688,5.997,6.001c0.002,3.313-2.686,5.999-5.999,5.999
	c-3.312,0-6-2.686-6.001-5.997C258.406,115.036,261.094,112.348,264.408,112.348z"/>
<path fill="#FF8415" d="M248.408,122.347c3.312,0.001,5.997,2.688,5.997,6.001c0.002,3.313-2.686,5.999-5.999,5.999
	c-3.312,0-6-2.686-6.001-5.997C242.406,125.035,245.094,122.347,248.408,122.347z"/>
<path fill="#FF8415" d="M224.987,240.63c3.312,0.001,5.997,2.688,5.997,6.001c0.002,3.313-2.686,5.999-5.999,5.999
	c-3.312,0-6-2.686-6.001-5.997C218.985,243.317,221.673,240.63,224.987,240.63z"/>
<path fill="#FF8415" d="M160.213,240.021c3.312,0.001,5.997,2.688,5.997,6.001c0.002,3.313-2.686,5.999-5.999,5.999
	c-3.312,0-6-2.686-6.001-5.997C154.211,242.709,156.898,240.021,160.213,240.021z"/>
<path fill="#FF8415" d="M134.211,128.347c-5.526,0.001-10.001-4.476-10.001-9.999c0.001-5.522,4.477-10,10-10s10,4.479,10,10
	C144.21,123.874,139.733,128.348,134.211,128.347z"/>
<path fill="#FF8415" d="M234.406,209.12c-5.526,0.001-10.001-4.476-10.001-9.999c0.001-5.522,4.477-10,10-10s10,4.479,10,10
	C244.405,204.646,239.929,209.121,234.406,209.12z"/>
<path fill="#FF8415" d="M79.598,151.267c8.058-0.002,14.589,6.533,14.589,14.59c0,8.06-6.531,14.593-14.589,14.592
	c-8.061,0-14.594-6.532-14.592-14.592C65.006,157.8,71.538,151.267,79.598,151.267z"/>
<path fill="#FF8415" d="M275,224.021c3.312,0.001,5.997,2.688,5.997,6.001c0.002,3.313-2.686,5.999-5.999,5.999
	c-3.312,0-6-2.686-6.001-5.997C268.998,226.709,271.686,224.021,275,224.021z"/>
<path fill="#FF8415" d="M296.392,197.298c3.312,0.001,5.997,2.688,5.997,6.001c0.002,3.313-2.686,5.999-5.999,5.999
	c-3.312,0-6-2.686-6.001-5.997C290.39,199.985,293.077,197.298,296.392,197.298z"/>
<circle fill="#FF8415" cx="254.405" cy="255.369" r="10"/>
<circle fill="#FF8415" cx="150.21" cy="236.021" r="10"/>
<circle fill="#FF8415" cx="76.423" cy="83.943" r="10"/>
<path fill="#FF8415" d="M76.426,266.439c3.312,0.001,5.997,2.688,5.997,6.001c0.002,3.313-2.686,5.999-5.999,5.999
	c-3.312,0-6-2.686-6.001-5.997C70.424,269.127,73.111,266.439,76.426,266.439z"/>
<path fill="#FF8415" d="M260.408,87.943c3.312,0.001,5.997,2.688,5.997,6.001c0.002,3.313-2.686,5.999-5.999,5.999
	c-3.312,0-6-2.686-6.001-5.997C254.406,90.631,257.094,87.943,260.408,87.943z"/>
<path fill="#FF8415" d="M252.105,169.63c3.312,0.001,5.997,2.688,5.997,6.001c0.002,3.313-2.686,5.999-5.999,5.999
	c-3.312,0-6-2.686-6.001-5.997C246.104,172.317,248.791,169.63,252.105,169.63z"/>
<circle fill="#FF8415" cx="282.692" cy="151.266" r="7.696"/>
<circle fill="#FF8415" cx="296.391" cy="114.534" r="6"/>
<path fill="#FF8415" d="M60.426,193.121c3.311,0.001,5.997,2.688,5.997,6.001c0.002,3.313-2.686,5.999-5.999,5.999
	c-3.312,0-6-2.686-6.001-5.997C54.424,195.809,57.111,193.121,60.426,193.121z"/>
<path fill="#FF8415" d="M140.213,246.021c3.311,0.001,5.997,2.688,5.997,6.001c0.002,3.314-2.686,6-5.999,6
	c-3.312,0-6-2.686-6.001-5.998C134.211,248.708,136.898,246.021,140.213,246.021z"/>
<path fill="#FF8415" d="M204.987,272.439c3.311,0.001,5.996,2.688,5.996,6.001c0.002,3.313-2.686,5.999-5.998,5.999
	s-6-2.686-6.001-5.997C198.985,275.127,201.673,272.439,204.987,272.439z"/>
<path fill="#FF8415" d="M170.998,160.821c8.058-0.002,14.589,6.533,14.589,14.59c0,8.06-6.531,14.593-14.589,14.592
	c-8.061,0-14.594-6.532-14.592-14.592C156.406,167.354,162.938,160.821,170.998,160.821z"/>
<circle fill="#FF8415" cx="264.405" cy="200.82" r="10"/>
<circle fill="#FF8415" cx="143.249" cy="284.439" r="14.591"/>
<path fill="#FF8415" d="M178.808,66.248c4.249-0.002,7.696,3.444,7.696,7.695s-3.445,7.695-7.698,7.696
	c-4.248-0.001-7.695-3.444-7.694-7.696C171.112,69.691,174.558,66.246,178.808,66.248z"/>
<circle fill="#FF8415" cx="180.222" cy="298.248" r="7.696"/>
<path fill="#FF8415" d="M206.684,299.943c3.312,0.001,5.997,2.688,5.997,6.001c0.002,3.313-2.686,5.999-5.999,5.999
	c-3.312,0-6-2.686-6.001-5.997C200.682,302.631,203.369,299.943,206.684,299.943z"/>
<path fill="#FF8415" d="M274.409,272.439c3.312,0.001,5.997,2.688,5.997,6.001c0.002,3.313-2.686,5.999-5.999,5.999
	c-3.312,0-6-2.686-6.001-5.997C268.407,275.127,271.095,272.439,274.409,272.439z"/>
<path fill="#FF8415" d="M42.72,96.421c3.312,0.001,5.997,2.688,5.997,6.001c0.002,3.313-2.686,5.999-5.999,5.999
	c-3.312,0-6-2.686-6.001-5.997C36.718,99.109,39.406,96.421,42.72,96.421z"/>
<path fill="#FF8415" d="M95.6,54.761c3.312,0.001,5.997,2.688,5.997,6.001c0.002,3.313-2.686,5.999-5.999,5.999
	c-3.312,0-6-2.686-6.001-5.997C89.598,57.448,92.286,54.761,95.6,54.761z"/>
<circle fill="#FF8415" cx="248.997" cy="66.248" r="10"/>
</svg>
