<?xml version="1.0" encoding="utf-8"?>
<!-- Generator: Adobe Illustrator 16.0.0, SVG Export Plug-In . SVG Version: 6.00 Build 0)  -->
<!DOCTYPE svg PUBLIC "-//W3C//DTD SVG 1.1//EN" "http://www.w3.org/Graphics/SVG/1.1/DTD/svg11.dtd">
<svg version="1.1" id="Layer_1" xmlns="http://www.w3.org/2000/svg" xmlns:xlink="http://www.w3.org/1999/xlink" x="0px" y="0px"
	 width="341.42px" height="350.887px" viewBox="0 0 341.42 350.887" enable-background="new 0 0 341.42 350.887"
	 xml:space="preserve">
<circle fill="#FF0066" cx="172.414" cy="175.597" r="69.822"/>
<path fill="#FF0066" d="M187.413,163.745c0,6.627-5.373,12-12,12h-6c-6.627,0-12-5.373-12-12v-132c0-6.627,5.373-12,12-12h6
	c6.627,0,12,5.373,12,12V163.745z"/>
<path fill="#FF0066" d="M187.413,319.443c0,6.628-5.373,12-12,12h-6c-6.627,0-12-5.372-12-12v-132c0-6.628,5.373-12,12-12h6
	c6.627,0,12,5.372,12,12V319.443z"/>
<path fill="#FF0066" d="M160.563,160.443c6.629,0,12,5.373,12,12v6c0,6.627-5.371,12-12,12h-132c-6.627,0-12-5.373-12-12v-6
	c0-6.627,5.373-12,12-12H160.563z"/>
<path fill="#FF0066" d="M316.263,160.443c6.627,0,12,5.373,12,12v6c0,6.627-5.373,12-12,12h-132c-6.629,0-12-5.373-12-12v-6
	c0-6.627,5.371-12,12-12H316.263z"/>
<path fill="#FF0066" d="M172.938,156.458c4.688,4.687,4.687,12.285,0.001,16.97l-4.243,4.243c-4.686,4.686-12.283,4.687-16.971,0
	L58.387,84.333c-4.686-4.686-4.686-12.285,0-16.971l4.243-4.243c4.686-4.686,12.284-4.686,16.97,0L172.938,156.458z"/>
<path fill="#FF0066" d="M283.033,266.555c4.688,4.686,4.686,12.283,0,16.969l-4.242,4.243c-4.686,4.687-12.283,4.687-16.971,0.001
	l-93.338-93.339c-4.687-4.687-4.686-12.284,0-16.971l4.242-4.243c4.686-4.686,12.284-4.686,16.971,0.001L283.033,266.555z"/>
<path fill="#FF0066" d="M157.468,178.958c4.686-4.686,12.285-4.686,16.971,0l4.242,4.242c4.687,4.687,4.687,12.285,0,16.971
	L85.343,293.51c-4.687,4.687-12.284,4.686-16.97-0.001l-4.243-4.242c-4.686-4.686-4.688-12.283,0-16.971L157.468,178.958z"/>
<path fill="#FF0066" d="M267.562,68.863c4.687-4.687,12.284-4.687,16.971,0l4.243,4.243c4.686,4.686,4.687,12.283,0,16.971
	l-93.339,93.338c-4.687,4.686-12.284,4.686-16.971,0l-4.243-4.242c-4.686-4.687-4.686-12.285,0-16.971L267.562,68.863z"/>
</svg>
