<?xml version="1.0" encoding="utf-8"?>
<!-- Generator: Adobe Illustrator 16.0.0, SVG Export Plug-In . SVG Version: 6.00 Build 0)  -->
<!DOCTYPE svg PUBLIC "-//W3C//DTD SVG 1.1//EN" "http://www.w3.org/Graphics/SVG/1.1/DTD/svg11.dtd">
<svg version="1.1" id="Layer_1" xmlns="http://www.w3.org/2000/svg" xmlns:xlink="http://www.w3.org/1999/xlink" x="0px" y="0px"
	 width="341.42px" height="350.887px" viewBox="0 0 341.42 350.887" enable-background="new 0 0 341.42 350.887"
	 xml:space="preserve">
<path fill="#7433AF" d="M48.997,97.245c-17.76,0,24.029,35.372,51.5,56c20.084,15.081,24.5,15.672,24.5,22
	c0,6.078,0.5,7.5-17.25,20.5c-27.422,20.084-78.456,57.369-60.206,57.369c30.131,0,122.882-60.243,122.882-75.657
	C170.423,162.042,79.128,97.245,48.997,97.245z"/>
<path fill="#7433AF" d="M204.497,304.745c0,6.627-4.973,12-11.108,12h-46.283c-6.135,0-11.608-5.373-11.608-12v-259
	c0-6.627,5.473-12,11.608-12h46.283c6.135,0,11.108,5.373,11.108,12V304.745z"/>
<circle fill="#7433AF" cx="116.277" cy="105.024" r="9.72"/>
<circle fill="#7433AF" cx="226.747" cy="108.495" r="7.25"/>
<circle fill="#7433AF" cx="226.747" cy="247.495" r="7.25"/>
<circle fill="#7433AF" cx="118.747" cy="247.495" r="7.25"/>
<circle fill="#7433AF" cx="77.997" cy="175.745" r="15"/>
<path fill="#7433AF" d="M292.114,98.245c17.76,0-24.029,35.372-51.5,56c-20.084,15.081-24.5,15.672-24.5,22
	c0,6.078-0.5,7.5,17.25,20.5c27.422,20.084,78.455,57.369,60.206,57.369c-30.132,0-122.882-60.243-122.882-75.657
	C170.688,163.042,261.983,98.245,292.114,98.245z"/>
<circle fill="#7433AF" cx="228.276" cy="106.024" r="9.721"/>
<circle fill="#7433AF" cx="228.276" cy="249.024" r="9.721"/>
<circle fill="#7433AF" cx="116.277" cy="249.024" r="9.72"/>
<circle fill="#7433AF" cx="262.997" cy="175.745" r="15"/>
</svg>
